<svg width="55" height="60" viewBox="0 0 55 60" fill="none" xmlns="http://www.w3.org/2000/svg">
<path d="M27.4621 0C31.885 0 36.0183 1.25191 39.5245 3.42917C38.4798 4.55308 37.6719 5.90219 37.1806 7.39616C34.3619 5.63099 31.0304 4.61413 27.4621 4.61413C17.3035 4.61413 9.10547 12.8404 9.104 23.0707V36.6351L4.99184 46.1529H49.959L45.8205 36.6381L45.8208 23.1102L45.8092 22.4175C45.7979 22.0841 45.7777 21.7532 45.7493 21.4247C46.2718 21.5035 46.8065 21.5443 47.3507 21.5443C48.3838 21.5443 49.3827 21.3972 50.3278 21.1228C50.3604 21.512 50.3837 21.904 50.3971 22.2988L50.41 23.0707V35.6735L54.6324 45.3815C54.8439 45.8674 54.9529 46.392 54.9529 46.9221C54.9529 49.0455 53.2403 50.7671 51.1283 50.7671L36.6413 50.7717C36.6413 55.8683 32.5316 60 27.4621 60C22.5738 60 18.5779 56.1581 18.2987 51.3141L18.2818 50.7649L3.82562 50.7671C3.30135 50.7671 2.7827 50.6588 2.30188 50.4489C0.364473 49.6028 -0.52393 47.3378 0.317601 45.3901L4.51447 35.6763V23.0704C4.51627 10.2898 14.7709 0 27.4621 0ZM32.0503 50.7649L22.8727 50.7717C22.8727 53.32 24.9275 55.3858 27.4621 55.3858C29.8479 55.3858 31.8083 53.556 32.0308 51.216L32.0503 50.7649ZM39.8231 9.40481C40.114 7.78284 40.9105 6.33767 42.0429 5.24031C43.4185 3.90745 45.2894 3.08773 47.3507 3.08773C51.5753 3.08773 55 6.53074 55 10.7779C55 14.1407 52.8532 16.9993 49.8621 18.0441C49.0756 18.3189 48.2304 18.4682 47.3507 18.4682C46.5917 18.4682 45.8587 18.3571 45.1666 18.1501C42.0062 17.2051 39.7014 14.2621 39.7014 10.7779C39.7014 10.3093 39.7433 9.85038 39.8231 9.40481Z" fill="#F1EEF5"/>
</svg>
