<svg width="34" height="21" viewBox="0 0 34 21" fill="none" xmlns="http://www.w3.org/2000/svg">
<path opacity="0.65" d="M17.0411 6.59255C20.8939 6.59255 24.0174 9.70588 24.0174 13.5463C24.0174 17.3868 20.8939 20.5 17.0411 20.5C13.1882 20.5 10.0648 17.3868 10.0648 13.5463C10.0648 9.70588 13.1882 6.59255 17.0411 6.59255ZM17.0411 0.5C25.0874 0.5 32.0333 5.97609 33.9605 13.6502C34.136 14.3487 33.7101 15.0568 33.0093 15.2317C32.3084 15.4064 31.5982 14.982 31.4227 14.2834C29.7852 7.76311 23.8802 3.10765 17.0411 3.10765C10.199 3.10765 4.29207 7.76711 2.65745 14.2914C2.48242 14.9899 1.77233 15.4147 1.07144 15.2404C0.370553 15.0658 -0.0557334 14.3581 0.119302 13.6594C2.04317 5.9808 8.99128 0.5 17.0411 0.5Z" fill="#F34096"/>
</svg>
