<svg width="63" height="63" viewBox="0 0 63 63" fill="none" xmlns="http://www.w3.org/2000/svg">
<path d="M25.375 0C39.3894 0 50.7501 11.3608 50.7501 25.375C50.7501 31.4367 48.6245 37.0017 45.0783 41.3658L62.2311 58.519C63.2563 59.5441 63.2563 61.2059 62.2311 62.2311C61.2994 63.1631 59.841 63.2478 58.8134 62.4852L58.519 62.2311L41.3659 45.0783C37.0017 48.6245 31.4367 50.75 25.375 50.75C11.3608 50.75 0 39.3894 0 25.375C0 11.3608 11.3608 0 25.375 0ZM25.375 5.25C14.2603 5.25 5.25001 14.2603 5.25001 25.375C5.25001 36.4896 14.2603 45.5 25.375 45.5C36.4897 45.5 45.5001 36.4896 45.5001 25.375C45.5001 14.2603 36.4897 5.25 25.375 5.25Z" fill="#F1EEF5"/>
</svg>
