<svg width="55" height="61" viewBox="0 0 55 61" fill="#F1EEF5" xmlns="http://www.w3.org/2000/svg">
<path d="M23.0679 1.65818C25.6282 -0.552732 29.3718 -0.552732 31.9321 1.65821L52.5571 19.469C54.1059 20.8067 55 22.7761 55 24.8511V55.5242C55 58.5484 52.606 61 49.6528 61H38.9583C36.0051 61 33.6111 58.5484 33.6111 55.5242V38.3145C33.6111 37.8827 33.2692 37.5323 32.8472 37.5323H22.1528C21.7308 37.5323 21.3889 37.8827 21.3889 38.3145V55.5242C21.3889 58.5484 18.9949 61 16.0417 61H5.34722C2.39403 61 0 58.5484 0 55.5242V24.8511C0 22.7761 0.893903 20.8067 2.44298 19.469L23.0679 1.65818ZM28.9774 5.24627C28.1239 4.50929 26.8761 4.50929 26.0226 5.24627L5.39767 23.0571C4.88131 23.503 4.58333 24.1594 4.58333 24.8511V55.5242C4.58333 55.9563 4.92534 56.3064 5.34722 56.3064H16.0417C16.4635 56.3064 16.8055 55.9563 16.8055 55.5242V38.3145C16.8055 35.2903 19.1996 32.8387 22.1528 32.8387H32.8472C35.8004 32.8387 38.1944 35.2903 38.1944 38.3145V55.5242C38.1944 55.9563 38.5364 56.3064 38.9583 56.3064H49.6528C50.0747 56.3064 50.4167 55.9563 50.4167 55.5242V24.8511C50.4167 24.1594 50.1187 23.503 49.6024 23.0571L28.9774 5.24627Z" fill="#F1EEF5"/>
</svg>
