<svg width="60" height="60" viewBox="0 0 60 60" fill="none" xmlns="http://www.w3.org/2000/svg">
<path d="M45 34.5C45 32.0148 42.9852 30 40.5 30H19.5C17.0147 30 15 32.0148 15 34.5V36C15 41.9142 20.5785 48 30 48C39.4215 48 45 41.9142 45 36V34.5ZM38.25 18.75C38.25 14.1937 34.5564 10.5 30 10.5C25.4436 10.5 21.75 14.1937 21.75 18.75C21.75 23.3063 25.4436 27 30 27C34.5564 27 38.25 23.3063 38.25 18.75ZM60 30C60 46.5684 46.5684 60 30 60C13.4314 60 0 46.5684 0 30C0 13.4314 13.4314 0 30 0C46.5684 0 60 13.4314 60 30ZM55.5 30C55.5 15.9167 44.0832 4.5 30 4.5C15.9167 4.5 4.5 15.9167 4.5 30C4.5 44.0832 15.9167 55.5 30 55.5C44.0832 55.5 55.5 44.0832 55.5 30Z" fill="#F1EEF5"/>
</svg>
